<?xml version="1.0" standalone="no"?>
<!DOCTYPE svg PUBLIC "-//W3C//DTD SVG 20010904//EN"
 "http://www.w3.org/TR/2001/REC-SVG-20010904/DTD/svg10.dtd">
<svg version="1.0" xmlns="http://www.w3.org/2000/svg"
 width="250.000000pt" height="200.000000pt" viewBox="0 0 250.000000 200.000000"
 preserveAspectRatio="xMidYMid meet">

<g transform="translate(0.000000,200.000000) scale(0.100000,-0.100000)"
fill="#000000" stroke="none">
<path d="M197 1459 c-23 -17 -25 -24 -15 -36 9 -11 9 -16 -2 -23 -11 -7 -11
-11 -1 -23 10 -13 9 -17 -4 -25 -14 -7 20 -43 184 -196 111 -104 201 -192 201
-196 0 -4 -18 -19 -40 -34 -22 -14 -40 -30 -40 -34 0 -5 18 -23 40 -41 l40
-32 60 41 60 41 28 -20 c15 -10 45 -38 66 -60 31 -32 37 -43 28 -54 -9 -11 -8
-18 8 -32 15 -14 20 -31 20 -72 l0 -53 -60 0 c-57 0 -60 1 -60 25 0 21 -5 25
-30 25 -25 0 -30 -4 -30 -25 0 -21 -5 -25 -30 -25 -23 0 -30 -4 -30 -20 0 -16
-7 -20 -30 -20 -27 0 -30 -3 -30 -30 0 -27 3 -30 30 -30 23 0 30 -4 30 -20 0
-16 7 -20 30 -20 25 0 30 -4 30 -25 0 -21 5 -25 30 -25 25 0 30 4 30 25 0 20
-5 25 -24 25 -18 0 -25 6 -28 23 -2 17 -11 23 -35 25 -25 2 -33 8 -33 23 0 14
7 19 30 19 25 0 30 4 30 25 0 21 5 25 30 25 25 0 30 -4 30 -25 0 -21 5 -25 28
-25 21 0 28 -5 29 -20 1 -16 -4 -20 -26 -20 -20 0 -30 -6 -34 -19 -6 -25 0
-31 35 -31 23 0 28 -4 28 -25 l0 -25 205 0 c118 0 205 -4 205 -9 0 -5 -6 -11
-12 -14 -28 -10 4 -18 88 -24 49 -3 91 -7 93 -9 2 -2 -39 -4 -92 -4 -58 0 -97
4 -97 10 0 6 -7 10 -15 10 -8 0 -15 -9 -15 -20 0 -19 7 -20 120 -20 110 0 120
2 120 18 0 10 -11 25 -25 32 -14 7 -25 17 -25 22 0 4 92 8 205 8 l205 0 0 25
c0 21 5 25 29 25 20 0 30 6 34 19 6 25 0 31 -35 31 -21 0 -28 5 -28 20 0 16 7
20 30 20 25 0 30 4 30 25 0 21 5 25 30 25 25 0 30 -4 30 -25 0 -21 5 -25 29
-25 24 0 28 -3 24 -19 -3 -12 -15 -21 -32 -23 -18 -2 -27 -10 -29 -25 -3 -17
-10 -23 -28 -23 -19 0 -24 -5 -24 -25 0 -21 5 -25 30 -25 25 0 30 4 30 25 0
21 5 25 29 25 23 0 30 5 33 23 2 16 10 22 28 22 20 0 25 5 25 25 0 20 -6 26
-27 28 -20 2 -28 9 -28 23 0 14 -7 19 -30 19 -25 0 -30 4 -30 25 0 21 -5 25
-30 25 -25 0 -30 -4 -30 -25 0 -24 -3 -25 -60 -25 l-60 0 0 64 c0 36 5 68 10
71 8 5 7 11 -1 21 -10 12 -2 25 47 75 32 32 62 59 67 59 5 0 36 -19 68 -42
l60 -42 40 40 40 40 -45 32 -45 33 199 186 c110 102 200 190 200 194 0 4 -5
11 -10 14 -8 5 -7 12 1 22 10 12 10 16 -1 23 -11 7 -11 12 -2 23 10 12 7 18
-20 35 -25 16 -36 18 -46 10 -10 -9 -18 -9 -32 -1 -17 11 -40 1 -40 -18 0 -13
33 -19 46 -8 10 8 19 6 38 -8 26 -18 33 -33 17 -33 -5 0 -11 6 -14 13 -3 8
-15 2 -35 -17 -17 -16 -29 -33 -26 -38 3 -5 2 -7 -3 -6 -13 4 -173 -143 -167
-154 3 -4 1 -7 -4 -6 -6 2 -49 -32 -97 -76 -85 -77 -86 -79 -68 -99 17 -20 17
-21 0 -8 -9 7 -32 21 -49 31 -18 9 -33 21 -35 27 -2 6 84 92 192 193 108 100
194 187 192 193 -2 6 -8 12 -14 14 -6 2 -103 -81 -214 -185 -197 -184 -204
-189 -226 -175 -21 14 -23 23 -23 94 l0 79 60 0 c57 0 60 -1 60 -25 0 -21 5
-25 30 -25 25 0 30 4 30 25 0 21 5 25 30 25 25 0 30 4 30 25 0 21 5 25 30 25
25 0 30 4 30 25 0 21 -5 25 -30 25 -25 0 -30 4 -30 25 0 21 -5 25 -30 25 -25
0 -30 4 -30 25 0 21 -5 25 -30 25 -25 0 -30 -4 -30 -25 0 -21 -5 -25 -30 -25
-25 0 -30 4 -30 25 l0 25 -480 0 -480 0 0 -25 c0 -21 -5 -25 -30 -25 -25 0
-30 4 -30 25 0 21 -5 25 -30 25 -25 0 -30 -4 -30 -25 0 -21 -5 -25 -30 -25
-25 0 -30 -4 -30 -25 0 -21 -5 -25 -30 -25 -25 0 -30 -4 -30 -25 0 -21 5 -25
30 -25 25 0 30 -4 30 -25 0 -21 5 -25 30 -25 25 0 30 -4 30 -25 0 -21 5 -25
30 -25 25 0 30 4 30 25 0 24 3 25 60 25 l60 0 0 -69 c0 -66 -1 -70 -33 -94
l-34 -26 -203 189 c-168 156 -207 189 -226 184 -12 -3 -25 -1 -29 5 -4 8 -12
8 -27 0 -14 -8 -23 -8 -31 0 -14 14 -17 14 -50 -10z m81 -21 c8 -8 15 -8 25 1
12 10 51 -22 216 -176 111 -103 201 -190 201 -194 0 -12 -115 -78 -118 -68 -2
5 -7 7 -11 5 -4 -3 -34 23 -67 56 -32 34 -50 55 -40 47 11 -8 35 -30 53 -50
38 -42 79 -57 100 -36 11 11 8 18 -24 47 -21 18 -70 64 -110 102 -40 38 -77
67 -83 63 -6 -3 -7 -11 -4 -17 4 -7 2 -8 -5 -4 -8 6 -9 12 -2 20 8 9 1 22 -26
47 -20 19 -32 28 -28 20 5 -10 4 -12 -4 -7 -6 4 -9 11 -6 16 3 4 -19 28 -49
54 -52 44 -54 45 -61 23 -11 -32 -11 -37 0 -37 6 0 10 4 10 9 0 5 3 12 7 16 3
4 5 0 4 -9 -1 -8 -5 -18 -9 -22 -3 -4 -4 -11 -1 -16 3 -5 12 -1 21 9 13 17 13
16 3 -4 -10 -22 -7 -27 13 -24 5 1 5 -3 2 -9 -4 -7 -1 -10 6 -8 8 1 14 0 14
-4 0 -13 78 -87 87 -82 5 3 7 1 6 -4 -2 -5 13 -24 32 -42 19 -18 26 -27 15
-19 -11 8 -71 61 -132 118 -92 85 -110 106 -98 115 8 6 16 20 18 31 6 41 23
55 45 33z m434 -35 c2 -22 9 -29 31 -31 37 -5 36 -32 -2 -32 -28 0 -47 -22
-35 -41 3 -5 -8 -9 -24 -9 -25 0 -29 3 -25 20 5 17 0 20 -31 20 -32 0 -36 3
-36 25 0 21 5 25 30 25 22 0 30 5 30 18 0 24 9 32 36 32 17 0 23 -7 26 -27z
m910 21 c44 -6 45 -7 46 -45 2 -36 0 -39 -26 -39 -15 1 -204 -1 -419 -3 l-393
-4 0 42 c0 23 3 45 7 48 8 9 724 9 785 1z m228 -24 c0 -25 4 -30 25 -30 35 0
33 -28 -2 -32 -20 -2 -29 -9 -31 -25 -3 -17 -10 -23 -28 -23 -13 0 -23 3 -23
8 4 24 -4 32 -31 32 -25 0 -30 4 -30 25 0 21 5 25 30 25 25 0 30 4 30 25 0 21
5 25 30 25 27 0 30 -3 30 -30z m330 -127 c-123 -116 -125 -117 -141 -95 -12
15 -12 15 1 5 12 -9 19 -8 33 1 21 16 23 30 2 23 -8 -4 -17 -2 -20 3 -3 5 8 7
25 5 21 -3 28 -1 24 7 -4 6 -3 8 3 5 5 -4 22 7 37 22 20 21 24 30 14 35 -9 4
-9 5 2 3 16 -2 100 61 100 75 0 5 -4 7 -8 4 -5 -3 -9 2 -9 10 0 13 2 13 16 0
14 -14 6 -25 -79 -103z m-1825 -13 c10 -11 16 -20 13 -20 -3 0 -13 9 -23 20
-10 11 -16 20 -13 20 3 0 13 -9 23 -20z m1255 -25 c0 -43 -1 -45 -29 -45 -49
0 -49 -46 -1 -53 l25 -4 2 -256 3 -257 -60 0 c-48 0 -60 3 -60 16 0 18 -23 44
-39 44 -6 0 -11 4 -11 9 0 5 -10 12 -22 14 -13 2 12 5 55 6 70 1 77 3 77 21 0
20 -7 20 -270 20 l-270 0 0 30 c0 27 -3 30 -30 30 -23 0 -30 4 -30 20 0 16 -7
20 -30 20 -29 0 -30 1 -30 50 l0 50 330 0 c323 0 330 0 330 20 0 20 -7 20
-284 20 -156 0 -304 3 -330 6 l-46 7 0 138 0 139 360 0 360 0 0 -45z m515 36
c3 -6 -5 -15 -17 -21 -21 -10 -21 -10 -6 3 10 8 15 17 11 20 -3 4 -4 7 0 7 3
0 8 -4 12 -9z m-1664 -78 c13 -16 12 -17 -3 -4 -10 7 -18 15 -18 17 0 8 8 3
21 -13z m54 -49 c9 -15 12 -23 6 -20 -11 7 -35 46 -28 46 3 0 12 -12 22 -26z
m1489 18 c3 -5 -1 -9 -9 -9 -8 0 -12 4 -9 9 3 4 7 8 9 8 2 0 6 -4 9 -8z m-14
-67 c-36 -37 -56 -51 -61 -43 -5 7 -3 18 2 25 6 7 8 18 4 25 -4 7 0 5 8 -4 16
-20 32 -25 21 -6 -4 6 -3 8 3 5 5 -4 23 7 38 23 16 17 31 30 34 30 3 0 -19
-25 -49 -55z m10 41 c0 -2 -8 -10 -17 -17 -16 -13 -17 -12 -4 4 13 16 21 21
21 13z m-1441 -34 c8 -14 5 -18 -12 -19 -16 -2 -18 0 -8 6 7 5 10 14 7 20 -4
6 -5 11 -2 11 3 0 10 -8 15 -18z m268 -45 c-3 -7 -64 -52 -136 -101 -104 -71
-134 -87 -144 -77 -9 10 -9 14 3 21 8 5 74 49 145 99 118 82 146 94 132 58z
m978 -73 c68 -47 127 -89 130 -94 3 -4 -1 -10 -9 -13 -20 -8 -255 154 -256
176 0 9 2 17 5 17 3 0 61 -39 130 -86z m84 36 c4 0 11 3 17 8 5 4 3 0 -4 -8
-14 -16 -42 -5 -51 21 -3 9 1 8 13 -4 10 -9 21 -17 25 -17z m-1070 -84 c7 -8
11 -34 9 -60 l-3 -45 -54 47 -53 46 28 22 c29 24 47 21 73 -10z m911 13 l29
-22 -42 -38 -42 -38 -3 45 c-3 39 9 74 25 74 2 0 17 -10 33 -21z m-780 -219
c0 -18 7 -20 83 -21 45 -1 71 -4 58 -6 -13 -3 -33 -13 -44 -24 -12 -10 -24
-19 -29 -19 -4 0 -8 -11 -8 -25 0 -24 -3 -25 -60 -25 l-60 0 0 70 0 70 30 0
c23 0 30 -4 30 -20z m420 -95 c0 -41 -4 -65 -11 -65 -6 0 -24 -13 -39 -30 -22
-24 -36 -30 -69 -30 -23 0 -41 5 -41 10 0 6 -6 10 -13 10 -7 0 -19 9 -27 20
-8 11 -20 20 -27 20 -9 0 -13 19 -13 65 l0 65 120 0 120 0 0 -65z m-260 35 c0
-5 -5 -10 -11 -10 -18 0 -39 -28 -39 -53 0 -17 10 -29 35 -43 39 -21 45 -34
15 -34 -11 0 -20 5 -20 10 0 6 -5 10 -11 10 -35 0 -54 84 -26 115 14 16 57 20
57 5z m336 -4 c23 -24 18 -83 -11 -111 -24 -25 -65 -34 -65 -15 0 6 7 10 15
10 8 0 15 5 15 10 0 6 9 10 20 10 16 0 20 7 20 33 0 21 -7 38 -20 47 -11 8
-20 18 -20 22 0 13 31 9 46 -6z m-336 -35 c0 -6 -4 -13 -10 -16 -5 -3 -10 1
-10 9 0 9 5 16 10 16 6 0 10 -4 10 -9z m297 -13 c-3 -8 -6 -5 -6 6 -1 11 2 17
5 13 3 -3 4 -12 1 -19z m-343 -83 c18 -18 37 -26 68 -27 38 -1 68 -16 68 -32
0 -3 -83 -6 -185 -6 l-185 0 0 45 0 45 105 0 c98 0 106 -2 129 -25z m606 -20
l0 -45 -185 0 c-117 0 -185 4 -185 10 0 6 7 10 15 10 8 0 15 4 15 8 0 4 19 9
42 11 25 1 48 9 57 20 24 27 37 29 144 30 l97 1 0 -45z m-400 -64 c0 -29 5
-41 18 -44 9 -3 -8 -5 -38 -5 -30 0 -47 2 -37 5 12 3 17 15 17 44 0 32 3 39
20 39 17 0 20 -7 20 -39z"/>
<path d="M952 1118 l3 -23 298 -3 297 -2 0 25 0 25 -301 0 -300 0 3 -22z"/>
<path d="M950 875 l0 -25 300 0 300 0 0 25 0 25 -300 0 -300 0 0 -25z"/>
</g>
</svg>
